<svg xmlns="http://www.w3.org/2000/svg" version="1.1" height="256" width="256">
   <g transform="translate(0,-229.26664)" id="logo">
      <rect transform="rotate(30)" ry="1.0583333" rx="1.0583333" y="194.53291" x="153.2108" height="21.166666" width="33.866665" style="fill:#000000;fill-opacity:1;stroke:none;stroke-width:0.5" />
      <circle transform="rotate(30)" r="5.2916665" cy="194.53291" cx="170.14413" style="fill:none;stroke:#000000;stroke-width:2.11666656" />
      <path d="m 44.441633,252.72976 1.833087,1.05833 -0.425369,7.08676 5.92463,-3.91176 1.833087,1.05833 -7.899509,5.21569 2.749631,1.5875 -1.05833,1.83308 -2.749631,-1.5875 -0.52917,0.91655 2.749631,1.5875 -1.05833,1.83308 -2.749631,-1.5875 -1.5875,2.74963 -1.833087,-1.05833 1.5875,-2.74963 -2.74963,-1.5875 1.05833,-1.83309 2.74963,1.5875 0.52917,-0.91655 -2.74963,-1.58749 1.05833,-1.83309 2.74963,1.5875 z" style="fill:#ffffff;fill-opacity:1;stroke:none;stroke-width:0.26458332px" />
      <path d="M 9.7837036,247.70516 H 28.974814" style="fill:none;stroke:#000000;stroke-width:1.32291667;stroke-linecap:round;stroke-dasharray:none" />
      <path style="fill:none;stroke:#000000;stroke-width:1.32291663;stroke-linecap:round" d="M 6.3029629,253.3496 H 25.494073" />
      <path d="M 3.0103703,259.46441 H 22.20148" style="fill:none;stroke:#000000;stroke-width:1.32291663;stroke-linecap:round" />
      <path style="fill:none;stroke:#000000;stroke-width:1.32291663;stroke-linecap:round" d="M 3.6688888,265.57922 H 22.859999" />
      <path d="m 11.194815,270.47107 h 19.19111" style="fill:none;stroke:#000000;stroke-width:1.32291663;stroke-linecap:round" />
      <path style="fill:none;stroke:#000000;stroke-width:1.32291663;stroke-linecap:round" d="m 19.002963,275.17477 h 19.19111" />
      <path d="m 27.093333,279.69033 h 19.19111" style="fill:none;stroke:#000000;stroke-width:1.32291663;stroke-linecap:round" />
   </g>
</svg>